# Blender v2.79 (sub 0) OBJ File: 'fish.blend'
# www.blender.org
mtllib fish.mtl
o Fish_Cube
v 0.099304 -0.054902 -1.453826
v -0.018322 0.387847 1.497746
v 0.080020 0.024806 -1.453826
v -0.018322 0.119251 1.497746
v -0.005543 -0.054902 -1.453826
v -0.018322 -0.149346 1.497746
v -0.019046 0.024806 -1.453826
v -0.018322 -0.417942 1.497746
v 0.126228 -0.343290 -1.203426
v 0.126189 -0.547960 -0.849892
v 0.115332 -0.686539 -0.188867
v 0.131896 -0.639657 0.232786
v 0.107296 -0.446817 0.654440
v 0.094032 -0.156343 1.076093
v 0.037586 -0.686539 1.497746
v -0.016046 0.008865 -1.453826
v -0.013179 -0.007077 -1.453826
v 0.055818 0.313195 -1.203426
v 0.148979 0.517865 -0.849891
v 0.137283 0.656443 -0.188866
v 0.148047 0.609562 0.232788
v 0.121252 0.416722 0.654441
v 0.098396 0.126248 1.076093
v 0.028161 0.656443 1.497747
v -0.010462 -0.023018 -1.453826
v -0.007911 -0.038960 -1.453826
v -0.020381 0.313195 -1.203426
v -0.032084 0.517865 -0.849891
v -0.007726 0.656443 -0.188867
v -0.018322 0.126248 1.076093
v -0.018322 0.656443 1.497746
v 0.083396 0.008865 -1.453826
v 0.086951 -0.007077 -1.453826
v 0.091764 -0.023018 -1.453826
v 0.095659 -0.038960 -1.453826
v -0.018322 -0.686539 1.497746
v -0.018322 -0.156343 1.076093
v -0.020309 -0.446817 0.654440
v -0.008146 -0.639657 0.232786
v 0.274020 0.248244 -1.167400
v 0.338747 0.050601 -1.169141
v 0.247225 -0.080696 -1.203426
v 0.198272 -0.211993 -1.203426
v 0.331072 0.304700 -0.849891
v 0.451508 0.091535 -0.849891
v 0.513209 -0.121630 -0.849891
v 0.415892 -0.334795 -0.849892
v 0.432720 0.387847 -0.188866
v 0.527626 0.119251 -0.188866
v 0.582897 -0.149346 -0.188866
v 0.478008 -0.417942 -0.188867
v 0.421977 0.359718 0.232787
v 0.463135 0.109874 0.232787
v 0.459836 -0.139969 0.232787
v 0.431829 -0.389813 0.232787
v 0.256446 0.244014 0.654440
v 0.259344 0.071306 0.654440
v 0.250594 -0.101402 0.654440
v 0.219617 -0.274110 0.654440
v 0.101043 0.069730 1.076093
v 0.100665 0.013211 1.076093
v 0.099632 -0.043307 1.076093
v 0.097023 -0.099825 1.076093
v 0.082242 0.387847 1.497747
v 0.053749 0.119251 1.497747
v 0.032725 -0.149346 1.497747
v 0.023380 -0.417942 1.497746
v -0.099304 -0.054902 -1.453826
v 0.018322 0.387847 1.497746
v -0.080020 0.024806 -1.453826
v 0.018322 0.119251 1.497746
v 0.005543 -0.054902 -1.453826
v 0.018322 -0.149346 1.497746
v 0.019046 0.024806 -1.453826
v 0.018322 -0.417942 1.497746
v -0.126228 -0.343290 -1.203426
v -0.126189 -0.547960 -0.849892
v -0.115332 -0.686539 -0.188867
v -0.131896 -0.639657 0.232786
v -0.107296 -0.446817 0.654440
v -0.094032 -0.156343 1.076093
v -0.037586 -0.686539 1.497746
v 0.016046 0.008865 -1.453826
v 0.013179 -0.007077 -1.453826
v -0.055818 0.313195 -1.203426
v -0.148979 0.517865 -0.849891
v -0.137283 0.656443 -0.188866
v -0.154821 0.609562 0.232788
v -0.093047 0.416722 0.654441
v -0.098396 0.126248 1.076093
v -0.028161 0.656443 1.497747
v 0.010462 -0.023018 -1.453826
v 0.007911 -0.038960 -1.453826
v 0.020381 0.313195 -1.203426
v 0.032084 0.517865 -0.849891
v 0.007726 0.656443 -0.188867
v 0.000000 0.609562 0.232787
v 0.000000 0.416722 0.654440
v 0.018322 0.126248 1.076093
v 0.018322 0.656443 1.497746
v -0.083396 0.008865 -1.453826
v -0.086951 -0.007077 -1.453826
v -0.091764 -0.023018 -1.453826
v -0.095659 -0.038960 -1.453826
v 0.018322 -0.686539 1.497746
v 0.018322 -0.156343 1.076093
v 0.020309 -0.446817 0.654440
v 0.008146 -0.639657 0.232786
v 0.000000 -0.686539 -0.188867
v 0.000000 -0.547960 -0.849892
v 0.000000 -0.343290 -1.203426
v -0.274020 0.248244 -1.167400
v -0.338747 0.050601 -1.169141
v -0.247225 -0.080696 -1.203426
v -0.198272 -0.211993 -1.203426
v -0.331072 0.304700 -0.849891
v -0.451508 0.091535 -0.849891
v -0.513209 -0.121630 -0.849891
v -0.415892 -0.334795 -0.849892
v -0.432720 0.387847 -0.188866
v -0.527626 0.119251 -0.188866
v -0.582897 -0.149346 -0.188866
v -0.478008 -0.417942 -0.188867
v -0.421977 0.359718 0.232787
v -0.463135 0.109874 0.232787
v -0.459836 -0.139969 0.232787
v -0.431829 -0.389813 0.232787
v -0.256446 0.244014 0.654440
v -0.259344 0.071306 0.654440
v -0.250594 -0.101402 0.654440
v -0.219617 -0.274110 0.654440
v -0.101043 0.069730 1.076093
v -0.100665 0.013211 1.076093
v -0.099632 -0.043307 1.076093
v -0.097023 -0.099825 1.076093
v -0.082242 0.387847 1.497747
v -0.053749 0.119251 1.497747
v -0.032725 -0.149346 1.497747
v -0.023380 -0.417942 1.497746
vn 0.9361 0.0103 0.3515
vn 0.0000 0.0000 -1.0000
vn 0.9380 -0.0400 0.3444
vn 0.9307 -0.1364 0.3395
vn 0.6511 -0.6353 0.4153
vn 0.0000 -0.6556 -0.7551
vn 0.0000 -0.8654 -0.5010
vn 0.0000 -0.9787 -0.2052
vn -0.0000 -0.9939 0.1105
vn -0.0000 -0.9094 0.4159
vn -0.0000 -0.8235 0.5673
vn 0.0000 -0.6224 -0.7827
vn 0.9887 -0.0878 0.1212
vn 0.9885 -0.0363 0.1465
vn 0.0000 0.6556 -0.7551
vn 0.0000 0.8654 -0.5010
vn 0.0000 0.9787 -0.2052
vn -0.0000 0.9939 0.1105
vn -0.0000 0.9094 0.4159
vn -0.0000 0.8235 0.5673
vn 0.0000 0.6224 -0.7827
vn 0.9820 0.0339 0.1856
vn -0.0000 -0.0000 1.0000
vn 0.3403 0.6156 -0.7108
vn 0.5456 0.7325 -0.4072
vn 0.7006 0.6944 -0.1641
vn 0.6718 0.7378 0.0656
vn 0.6628 0.6417 0.3859
vn 0.7770 0.4673 0.4218
vn 0.9828 0.1715 -0.0687
vn 0.8318 -0.4185 0.3646
vn 0.9888 -0.0671 0.1335
vn 0.8786 -0.1226 0.4615
vn 0.8978 -0.0256 0.4397
vn 0.9055 0.0944 0.4138
vn 0.6136 -0.7843 0.0913
vn 0.9489 -0.2432 0.2012
vn 0.9715 0.0974 0.2161
vn 0.9627 0.2526 0.0971
vn 0.5868 -0.7946 -0.1560
vn 0.9150 -0.3841 -0.1234
vn 0.9662 0.2346 -0.1066
vn 0.9019 0.4031 -0.1551
vn 0.6048 -0.6352 -0.4803
vn 0.7470 -0.3172 -0.5843
vn 0.8711 -0.0266 -0.4904
vn 0.8713 0.3940 -0.2926
vn 0.7698 -0.3576 -0.5286
vn 0.8099 -0.2479 -0.5316
vn 0.7562 -0.3113 -0.5755
vn 0.7071 0.2315 -0.6682
vn -0.9361 0.0103 0.3515
vn -0.9380 -0.0400 0.3444
vn -0.9307 -0.1364 0.3395
vn -0.6511 -0.6353 0.4153
vn -0.9887 -0.0878 0.1212
vn -0.9885 -0.0363 0.1465
vn -0.9820 0.0339 0.1856
vn -0.3403 0.6156 -0.7108
vn -0.5456 0.7325 -0.4072
vn -0.7006 0.6944 -0.1641
vn -0.6764 0.7341 0.0598
vn -0.6388 0.6509 0.4103
vn -0.7337 0.5315 0.4234
vn -0.9828 0.1715 -0.0687
vn -0.8318 -0.4185 0.3646
vn -0.9888 -0.0671 0.1335
vn -0.8786 -0.1226 0.4615
vn -0.8978 -0.0256 0.4397
vn -0.9055 0.0944 0.4138
vn -0.6136 -0.7843 0.0913
vn -0.9489 -0.2432 0.2012
vn -0.9715 0.0974 0.2161
vn -0.9627 0.2526 0.0971
vn -0.5868 -0.7946 -0.1560
vn -0.9150 -0.3841 -0.1234
vn -0.9662 0.2346 -0.1066
vn -0.9019 0.4031 -0.1551
vn -0.6048 -0.6352 -0.4803
vn -0.7470 -0.3172 -0.5843
vn -0.8711 -0.0266 -0.4904
vn -0.8713 0.3940 -0.2926
vn -0.7698 -0.3576 -0.5286
vn -0.8099 -0.2479 -0.5316
vn -0.7562 -0.3113 -0.5755
vn -0.7071 0.2315 -0.6682
usemtl Material
s off
f 57//1 56//1 60//1 61//1
f 35//2 1//2 5//2 26//2
f 58//3 57//3 61//3 62//3
f 59//4 58//4 62//4 63//4
f 12//5 55//5 59//5 13//5
f 1//6 9//6 111//6 5//6
f 9//7 10//7 110//7 111//7
f 10//8 11//8 109//8 110//8
f 11//9 12//9 39//9 109//9
f 12//10 13//10 38//10 39//10
f 13//11 14//11 37//11 38//11
f 14//12 15//12 36//12 37//12
f 61//13 60//13 64//13 65//13
f 63//14 62//14 66//14 67//14
f 3//15 7//15 27//15 18//15
f 18//16 27//16 28//16 19//16
f 19//17 28//17 29//17 20//17
f 20//18 29//18 97//18 21//18
f 21//19 97//19 98//19 22//19
f 22//20 98//20 30//20 23//20
f 23//21 30//21 31//21 24//21
f 14//22 63//22 67//22 15//22
f 2//23 64//23 24//23 31//23
f 32//24 3//24 18//24 40//24
f 40//25 18//25 19//25 44//25
f 44//26 19//26 20//26 48//26
f 48//27 20//27 21//27 52//27
f 52//28 21//28 22//28 56//28
f 56//29 22//29 23//29 60//29
f 60//30 23//30 24//30 64//30
f 13//31 59//31 63//31 14//31
f 62//32 61//32 65//32 66//32
f 55//33 54//33 58//33 59//33
f 54//34 53//34 57//34 58//34
f 53//35 52//35 56//35 57//35
f 11//36 51//36 55//36 12//36
f 51//37 50//37 54//37 55//37
f 50//38 49//38 53//38 54//38
f 49//39 48//39 52//39 53//39
f 10//40 47//40 51//40 11//40
f 47//41 46//41 50//41 51//41
f 46//42 45//42 49//42 50//42
f 45//43 44//43 48//43 49//43
f 9//44 43//44 47//44 10//44
f 43//45 42//45 46//45 47//45
f 42//46 41//46 45//46 46//46
f 41//47 40//47 44//47 45//47
f 1//48 35//48 43//48 9//48
f 35//49 34//49 42//49 43//49
f 34//50 33//50 41//50 42//50
f 33//51 32//51 40//51 41//51
f 36//23 15//23 67//23 8//23
f 8//23 67//23 66//23 6//23
f 6//23 66//23 65//23 4//23
f 4//23 65//23 64//23 2//23
f 3//2 32//2 16//2 7//2
f 32//2 33//2 17//2 16//2
f 33//2 34//2 25//2 17//2
f 34//2 35//2 26//2 25//2
f 129//52 133//52 132//52 128//52
f 104//2 93//2 72//2 68//2
f 130//53 134//53 133//53 129//53
f 131//54 135//54 134//54 130//54
f 79//55 80//55 131//55 127//55
f 68//6 72//6 111//6 76//6
f 76//7 111//7 110//7 77//7
f 77//8 110//8 109//8 78//8
f 78//9 109//9 108//9 79//9
f 79//10 108//10 107//10 80//10
f 80//11 107//11 106//11 81//11
f 81//12 106//12 105//12 82//12
f 133//56 137//56 136//56 132//56
f 135//57 139//57 138//57 134//57
f 70//15 85//15 94//15 74//15
f 85//16 86//16 95//16 94//16
f 86//17 87//17 96//17 95//17
f 87//18 88//18 97//18 96//18
f 88//19 89//19 98//19 97//19
f 89//20 90//20 99//20 98//20
f 90//21 91//21 100//21 99//21
f 81//58 82//58 139//58 135//58
f 69//23 100//23 91//23 136//23
f 101//59 112//59 85//59 70//59
f 112//60 116//60 86//60 85//60
f 116//61 120//61 87//61 86//61
f 120//62 124//62 88//62 87//62
f 124//63 128//63 89//63 88//63
f 128//64 132//64 90//64 89//64
f 132//65 136//65 91//65 90//65
f 80//66 81//66 135//66 131//66
f 134//67 138//67 137//67 133//67
f 127//68 131//68 130//68 126//68
f 126//69 130//69 129//69 125//69
f 125//70 129//70 128//70 124//70
f 78//71 79//71 127//71 123//71
f 123//72 127//72 126//72 122//72
f 122//73 126//73 125//73 121//73
f 121//74 125//74 124//74 120//74
f 77//75 78//75 123//75 119//75
f 119//76 123//76 122//76 118//76
f 118//77 122//77 121//77 117//77
f 117//78 121//78 120//78 116//78
f 76//79 77//79 119//79 115//79
f 115//80 119//80 118//80 114//80
f 114//81 118//81 117//81 113//81
f 113//82 117//82 116//82 112//82
f 68//83 76//83 115//83 104//83
f 104//84 115//84 114//84 103//84
f 103//85 114//85 113//85 102//85
f 102//86 113//86 112//86 101//86
f 105//23 75//23 139//23 82//23
f 75//23 73//23 138//23 139//23
f 73//23 71//23 137//23 138//23
f 71//23 69//23 136//23 137//23
f 70//2 74//2 83//2 101//2
f 101//2 83//2 84//2 102//2
f 102//2 84//2 92//2 103//2
f 103//2 92//2 93//2 104//2
